<svg width="170" height="50" viewBox="0 0 170 50" fill="none" xmlns="http://www.w3.org/2000/svg">
<rect width="169.573" height="50" fill="white"/>
<path fill-rule="evenodd" clip-rule="evenodd" d="M25 46.3289C36.7796 46.3289 46.3289 36.7796 46.3289 25C46.3289 13.2204 36.7796 3.67107 25 3.67107C13.2204 3.67107 3.67107 13.2204 3.67107 25C3.67107 36.7796 13.2204 46.3289 25 46.3289ZM25 50C38.8071 50 50 38.8071 50 25C50 11.1929 38.8071 0 25 0C11.1929 0 0 11.1929 0 25C0 38.8071 11.1929 50 25 50Z" fill="#03B0CD"/>
<path d="M23.8757 16.8955C27.7297 13.374 33.9828 11.3322 36.5302 13.8795C39.0775 16.4268 37.0356 22.6799 33.5141 26.534C30.5526 29.7753 26.9207 32.1767 23.5276 31.1358C22.5302 30.8301 21.4509 31.0974 20.7125 31.8358L11.2092 41.5694L8.79765 39.1579L18.574 29.6974C19.3125 28.9589 19.5815 27.8814 19.274 26.8823C18.2332 23.4892 20.6343 19.8571 23.8757 16.8955Z" fill="#03B0CD"/>
<g opacity="0.8">
<path d="M73.6217 34.9399C72.1938 34.9399 70.9142 34.7081 69.783 34.2445C68.6518 33.7809 67.7432 33.0948 67.057 32.1861C66.3894 31.2774 66.0371 30.1833 66 28.9038H71.0626C71.1368 29.627 71.3871 30.1833 71.8136 30.5728C72.2401 30.9436 72.7965 31.1291 73.4826 31.1291C74.1873 31.1291 74.7436 30.9715 75.1516 30.6562C75.5596 30.3224 75.7636 29.8681 75.7636 29.2932C75.7636 28.8111 75.5967 28.4124 75.2629 28.0971C74.9476 27.7819 74.5489 27.5222 74.0668 27.3182C73.6032 27.1143 72.9356 26.8825 72.064 26.6228C70.803 26.2334 69.7738 25.844 68.9764 25.4545C68.179 25.0651 67.4928 24.4902 66.9179 23.7299C66.3431 22.9696 66.0556 21.9775 66.0556 20.7536C66.0556 18.9362 66.714 17.5176 68.0306 16.4977C69.3472 15.4592 71.0626 14.9399 73.1766 14.9399C75.3278 14.9399 77.0617 15.4592 78.3783 16.4977C79.6949 17.5176 80.3996 18.9455 80.4924 20.7814H75.3463C75.3092 20.1509 75.0774 19.6595 74.6509 19.3071C74.2244 18.9362 73.6773 18.7508 73.0097 18.7508C72.4349 18.7508 71.9713 18.9084 71.6189 19.2237C71.2666 19.5204 71.0904 19.9562 71.0904 20.531C71.0904 21.1615 71.3871 21.653 71.9805 22.0053C72.5739 22.3577 73.5012 22.7378 74.7622 23.1458C76.0232 23.5723 77.0431 23.9803 77.822 24.3697C78.6194 24.7591 79.3055 25.3247 79.8804 26.0665C80.4553 26.8083 80.7427 27.7633 80.7427 28.9316C80.7427 30.0443 80.4553 31.0549 79.8804 31.9636C79.3241 32.8723 78.5081 33.5955 77.4325 34.1333C76.357 34.671 75.0867 34.9399 73.6217 34.9399Z" fill="black"/>
<path d="M88.4265 31.0735H94.6574V34.7452H83.6699V15.2181H88.4265V31.0735Z" fill="black"/>
<path d="M101.683 15.2181V34.7452H96.9262V15.2181H101.683Z" fill="black"/>
<path d="M116.451 34.7452L109.886 26.1221V34.7452H105.13V15.2181H109.886V23.7856L116.396 15.2181H121.987L114.421 24.787L122.265 34.7452H116.451Z" fill="black"/>
<path d="M135.847 34.7452L129.282 26.1221V34.7452H124.525V15.2181H129.282V23.7856L135.791 15.2181H141.382L133.816 24.787L141.66 34.7452H135.847Z" fill="black"/>
<path d="M160.666 15.2181L153.907 28.2918V34.7452H149.15V28.2918L142.391 15.2181H147.787L151.57 23.3961L155.325 15.2181H160.666Z" fill="black"/>
</g>
<path d="M165.229 35.0599C164.613 35.0599 164.041 34.9519 163.513 34.7359C162.985 34.5119 162.521 34.2039 162.121 33.8119C161.729 33.4119 161.421 32.9479 161.197 32.4199C160.981 31.8919 160.873 31.3199 160.873 30.7039C160.873 30.0879 160.981 29.5159 161.197 28.9879C161.421 28.4599 161.729 27.9999 162.121 27.6079C162.521 27.2159 162.985 26.9119 163.513 26.6959C164.041 26.4719 164.613 26.3599 165.229 26.3599C165.845 26.3599 166.417 26.4719 166.945 26.6959C167.473 26.9119 167.933 27.2159 168.325 27.6079C168.717 27.9999 169.021 28.4599 169.237 28.9879C169.461 29.5159 169.573 30.0879 169.573 30.7039C169.573 31.3199 169.461 31.8919 169.237 32.4199C169.021 32.9479 168.717 33.4119 168.325 33.8119C167.933 34.2039 167.473 34.5119 166.945 34.7359C166.417 34.9519 165.845 35.0599 165.229 35.0599ZM165.229 34.4239C165.757 34.4239 166.245 34.3319 166.693 34.1479C167.141 33.9559 167.529 33.6919 167.857 33.3559C168.185 33.0199 168.441 32.6279 168.625 32.1799C168.809 31.7239 168.901 31.2319 168.901 30.7039C168.901 30.1759 168.809 29.6879 168.625 29.2399C168.441 28.7839 168.185 28.3919 167.857 28.0639C167.529 27.7279 167.141 27.4679 166.693 27.2839C166.245 27.0919 165.757 26.9959 165.229 26.9959C164.701 26.9959 164.213 27.0919 163.765 27.2839C163.317 27.4679 162.925 27.7279 162.589 28.0639C162.261 28.3919 162.005 28.7839 161.821 29.2399C161.637 29.6879 161.545 30.1759 161.545 30.7039C161.545 31.2319 161.637 31.7239 161.821 32.1799C162.005 32.6279 162.261 33.0199 162.589 33.3559C162.925 33.6919 163.317 33.9559 163.765 34.1479C164.213 34.3319 164.701 34.4239 165.229 34.4239ZM163.369 33.2359V28.1599H165.565C166.133 28.1599 166.565 28.2999 166.861 28.5799C167.165 28.8519 167.317 29.2119 167.317 29.6599C167.317 30.1239 167.169 30.4799 166.873 30.7279C166.577 30.9679 166.161 31.0879 165.625 31.0879L165.889 30.9559C166.145 30.9559 166.357 31.0199 166.525 31.1479C166.693 31.2679 166.825 31.5039 166.921 31.8559L167.377 33.2359H166.201L165.733 31.7359C165.677 31.5599 165.589 31.4439 165.469 31.3879C165.349 31.3239 165.209 31.2919 165.049 31.2919H164.329L164.521 31.1599V33.2359H163.369ZM164.509 30.4279H165.409C165.681 30.4279 165.885 30.3719 166.021 30.2599C166.157 30.1479 166.225 29.9679 166.225 29.7199C166.225 29.4799 166.157 29.3039 166.021 29.1919C165.885 29.0799 165.681 29.0239 165.409 29.0239H164.509V30.4279Z" fill="black"/>
</svg>
